<svg xmlns="http://www.w3.org/2000/svg" xmlns:xlink="http://www.w3.org/1999/xlink" width="500" zoomAndPan="magnify" viewBox="0 0 375 374.999991" height="500" preserveAspectRatio="xMidYMid meet" version="1.0"><defs><g/><clipPath id="id1"><path d="M 44.898438 131 L 114 131 L 114 190 L 44.898438 190 Z M 44.898438 131 " clip-rule="nonzero"/></clipPath><clipPath id="id2"><path d="M 107 74 L 268 74 L 268 207.632812 L 107 207.632812 Z M 107 74 " clip-rule="nonzero"/></clipPath><clipPath id="id3"><path d="M 261 131 L 329.898438 131 L 329.898438 190 L 261 190 Z M 261 131 " clip-rule="nonzero"/></clipPath></defs><g clip-path="url(#id1)"><path fill="#ffffff" d="M 113.242188 160.265625 C 113.242188 153.039062 107.382812 147.183594 100.152344 147.183594 C 93.78125 147.183594 88.476562 151.734375 87.304688 157.761719 L 82.402344 157.761719 C 81.339844 154.40625 78.203125 151.976562 74.496094 151.976562 C 73.34375 151.976562 72.253906 152.210938 71.257812 152.632812 C 68.027344 140.871094 57.53125 132.113281 44.886719 131.5 L 44.886719 138.574219 C 56.242188 139.304688 65.226562 148.734375 65.226562 160.265625 C 65.226562 171.796875 56.242188 181.230469 44.886719 181.957031 L 44.886719 189.03125 C 57.53125 188.421875 68.027344 179.664062 71.257812 167.902344 C 72.253906 168.320312 73.34375 168.558594 74.496094 168.558594 C 78.203125 168.558594 81.339844 166.125 82.402344 162.769531 L 87.304688 162.769531 C 88.476562 168.796875 93.78125 173.351562 100.152344 173.351562 C 107.382812 173.351562 113.242188 167.492188 113.242188 160.265625 " fill-opacity="1" fill-rule="nonzero"/></g><g clip-path="url(#id2)"><path fill="#ffffff" d="M 218.160156 170.394531 C 210.242188 170.394531 203.820312 163.976562 203.820312 156.058594 C 203.820312 148.140625 210.242188 141.722656 218.160156 141.722656 C 226.082031 141.722656 232.503906 148.140625 232.503906 156.058594 C 232.503906 163.976562 226.082031 170.394531 218.160156 170.394531 Z M 187.398438 191.820312 C 168.855469 191.820312 153.820312 190.195312 153.820312 188.1875 C 153.820312 186.179688 168.855469 184.554688 187.398438 184.554688 C 205.9375 184.554688 220.972656 186.179688 220.972656 188.1875 C 220.972656 190.195312 205.9375 191.820312 187.398438 191.820312 Z M 142.289062 156.058594 C 142.289062 148.140625 148.710938 141.722656 156.632812 141.722656 C 164.550781 141.722656 170.972656 148.140625 170.972656 156.058594 C 170.972656 163.976562 164.550781 170.394531 156.632812 170.394531 C 148.710938 170.394531 142.289062 163.976562 142.289062 156.058594 Z M 257.671875 160.265625 C 257.671875 153.425781 261.75 147.523438 267.597656 144.84375 C 258.570312 130.277344 237.105469 118.941406 210.273438 114.765625 L 227.339844 94.445312 C 231.453125 96.324219 236.46875 95.328125 239.515625 91.699219 C 243.175781 87.34375 242.609375 80.84375 238.25 77.1875 C 233.894531 73.527344 227.390625 74.09375 223.730469 78.453125 C 220.683594 82.078125 220.570312 87.191406 223.132812 90.910156 L 203.8125 113.910156 C 198.5 113.328125 193.015625 113.023438 187.398438 113.023438 C 181.78125 113.023438 176.292969 113.328125 170.980469 113.910156 L 151.660156 90.910156 C 154.226562 87.191406 154.109375 82.078125 151.0625 78.453125 C 147.402344 74.09375 140.902344 73.527344 136.542969 77.1875 C 132.183594 80.84375 131.617188 87.34375 135.277344 91.699219 C 138.328125 95.328125 143.339844 96.324219 147.453125 94.445312 L 164.519531 114.765625 C 137.691406 118.941406 116.226562 130.277344 107.195312 144.84375 C 113.042969 147.523438 117.121094 153.425781 117.121094 160.265625 C 117.121094 167.105469 113.042969 173.011719 107.195312 175.691406 C 118.675781 194.207031 150.246094 207.507812 187.398438 207.507812 C 224.550781 207.507812 256.121094 194.207031 267.597656 175.691406 C 261.75 173.011719 257.671875 167.105469 257.671875 160.265625 " fill-opacity="1" fill-rule="nonzero"/></g><g clip-path="url(#id3)"><path fill="#ffffff" d="M 329.90625 138.574219 L 329.90625 131.5 C 317.265625 132.113281 306.765625 140.871094 303.539062 152.632812 C 302.542969 152.210938 301.449219 151.976562 300.300781 151.976562 C 296.59375 151.976562 293.457031 154.40625 292.394531 157.761719 L 287.488281 157.761719 C 286.316406 151.734375 281.011719 147.183594 274.640625 147.183594 C 267.410156 147.183594 261.550781 153.039062 261.550781 160.265625 C 261.550781 167.492188 267.410156 173.351562 274.640625 173.351562 C 281.011719 173.351562 286.316406 168.796875 287.488281 162.769531 L 292.394531 162.769531 C 293.457031 166.125 296.59375 168.558594 300.300781 168.558594 C 301.449219 168.558594 302.542969 168.320312 303.539062 167.902344 C 306.765625 179.664062 317.265625 188.421875 329.90625 189.03125 L 329.90625 181.957031 C 318.554688 181.230469 309.566406 171.796875 309.566406 160.265625 C 309.566406 148.734375 318.554688 139.304688 329.90625 138.574219 " fill-opacity="1" fill-rule="nonzero"/></g><g fill="#ffffff" fill-opacity="1"><g transform="translate(37.62495, 263.337536)"><g><path d="M 19.6875 -14.875 C 23.226562 -13.96875 25 -11.753906 25 -8.234375 C 25 -5.867188 24.257812 -4.003906 22.78125 -2.640625 C 21.300781 -1.273438 19.519531 -0.445312 17.4375 -0.15625 C 16.507812 -0.0507812 15.226562 0 13.59375 0 L 3.5625 0 L 3.5625 -27.59375 L 13.4375 -27.59375 C 14.90625 -27.59375 16.09375 -27.539062 17 -27.4375 C 19.207031 -27.175781 20.914062 -26.429688 22.125 -25.203125 C 23.34375 -23.972656 23.953125 -22.425781 23.953125 -20.5625 C 23.953125 -17.757812 22.53125 -15.863281 19.6875 -14.875 Z M 9.078125 -23.28125 L 9.078125 -16.28125 L 13.234375 -16.28125 C 13.898438 -16.28125 14.554688 -16.320312 15.203125 -16.40625 C 17.203125 -16.71875 18.203125 -17.863281 18.203125 -19.84375 C 18.203125 -21.789062 17.160156 -22.894531 15.078125 -23.15625 C 14.441406 -23.238281 13.773438 -23.28125 13.078125 -23.28125 Z M 15.71875 -4.40625 C 16.726562 -4.476562 17.5625 -4.847656 18.21875 -5.515625 C 18.875 -6.179688 19.203125 -7.078125 19.203125 -8.203125 C 19.203125 -10.523438 18.015625 -11.804688 15.640625 -12.046875 C 14.972656 -12.117188 14.320312 -12.15625 13.6875 -12.15625 L 9.078125 -12.15625 L 9.078125 -4.359375 L 13.875 -4.359375 C 14.757812 -4.359375 15.375 -4.375 15.71875 -4.40625 Z M 15.71875 -4.40625 "/></g></g></g><g fill="#ffffff" fill-opacity="1"><g transform="translate(67.387886, 263.337536)"><g><path d="M 23.484375 -4.59375 L 23.484375 0 L 3.5625 0 L 3.5625 -27.59375 L 9.078125 -27.59375 L 9.078125 -4.59375 Z M 23.484375 -4.59375 "/></g></g></g><g fill="#ffffff" fill-opacity="1"><g transform="translate(95.030647, 263.337536)"><g><path d="M 25.953125 -27.59375 L 25.953125 -11.234375 C 25.953125 -9.929688 25.925781 -8.851562 25.875 -8 C 25.6875 -5.488281 24.664062 -3.429688 22.8125 -1.828125 C 20.96875 -0.234375 18.226562 0.5625 14.59375 0.5625 C 10.945312 0.5625 8.195312 -0.234375 6.34375 -1.828125 C 4.488281 -3.429688 3.46875 -5.488281 3.28125 -8 C 3.226562 -8.851562 3.203125 -9.929688 3.203125 -11.234375 L 3.203125 -27.59375 L 8.6875 -27.59375 L 8.6875 -10.6875 C 8.6875 -9.75 8.710938 -9.082031 8.765625 -8.6875 C 8.890625 -7.050781 9.4375 -5.785156 10.40625 -4.890625 C 11.382812 -4.003906 12.78125 -3.5625 14.59375 -3.5625 C 16.382812 -3.5625 17.765625 -4.003906 18.734375 -4.890625 C 19.710938 -5.785156 20.269531 -7.050781 20.40625 -8.6875 C 20.457031 -9.082031 20.484375 -9.75 20.484375 -10.6875 L 20.484375 -27.59375 Z M 25.953125 -27.59375 "/></g></g></g><g fill="#ffffff" fill-opacity="1"><g transform="translate(126.593715, 263.337536)"><g><path d="M 23.484375 -4.359375 L 23.484375 0 L 3.5625 0 L 3.5625 -27.59375 L 23.078125 -27.59375 L 23.078125 -23.28125 L 9.078125 -23.28125 L 9.078125 -16 L 22.078125 -16 L 22.078125 -11.640625 L 9.078125 -11.640625 L 9.078125 -4.359375 Z M 23.484375 -4.359375 "/></g></g></g><g fill="#ffffff" fill-opacity="1"><g transform="translate(154.716526, 263.337536)"><g><path d="M 19.6875 -14.875 C 23.226562 -13.96875 25 -11.753906 25 -8.234375 C 25 -5.867188 24.257812 -4.003906 22.78125 -2.640625 C 21.300781 -1.273438 19.519531 -0.445312 17.4375 -0.15625 C 16.507812 -0.0507812 15.226562 0 13.59375 0 L 3.5625 0 L 3.5625 -27.59375 L 13.4375 -27.59375 C 14.90625 -27.59375 16.09375 -27.539062 17 -27.4375 C 19.207031 -27.175781 20.914062 -26.429688 22.125 -25.203125 C 23.34375 -23.972656 23.953125 -22.425781 23.953125 -20.5625 C 23.953125 -17.757812 22.53125 -15.863281 19.6875 -14.875 Z M 9.078125 -23.28125 L 9.078125 -16.28125 L 13.234375 -16.28125 C 13.898438 -16.28125 14.554688 -16.320312 15.203125 -16.40625 C 17.203125 -16.71875 18.203125 -17.863281 18.203125 -19.84375 C 18.203125 -21.789062 17.160156 -22.894531 15.078125 -23.15625 C 14.441406 -23.238281 13.773438 -23.28125 13.078125 -23.28125 Z M 15.71875 -4.40625 C 16.726562 -4.476562 17.5625 -4.847656 18.21875 -5.515625 C 18.875 -6.179688 19.203125 -7.078125 19.203125 -8.203125 C 19.203125 -10.523438 18.015625 -11.804688 15.640625 -12.046875 C 14.972656 -12.117188 14.320312 -12.15625 13.6875 -12.15625 L 9.078125 -12.15625 L 9.078125 -4.359375 L 13.875 -4.359375 C 14.757812 -4.359375 15.375 -4.375 15.71875 -4.40625 Z M 15.71875 -4.40625 "/></g></g></g><g fill="#ffffff" fill-opacity="1"><g transform="translate(184.479468, 263.337536)"><g><path d="M 15.6875 -28.15625 C 19.894531 -28.15625 23.21875 -26.851562 25.65625 -24.25 C 28.09375 -21.65625 29.3125 -18.171875 29.3125 -13.796875 C 29.3125 -9.453125 28.09375 -5.972656 25.65625 -3.359375 C 23.21875 -0.742188 19.890625 0.5625 15.671875 0.5625 C 11.460938 0.5625 8.140625 -0.742188 5.703125 -3.359375 C 3.265625 -5.972656 2.046875 -9.453125 2.046875 -13.796875 C 2.046875 -18.171875 3.253906 -21.65625 5.671875 -24.25 C 8.097656 -26.851562 11.4375 -28.15625 15.6875 -28.15625 Z M 9.890625 -6.25 C 11.296875 -4.457031 13.222656 -3.5625 15.671875 -3.5625 C 18.128906 -3.5625 20.050781 -4.46875 21.4375 -6.28125 C 22.820312 -8.09375 23.515625 -10.597656 23.515625 -13.796875 C 23.515625 -17.023438 22.820312 -19.539062 21.4375 -21.34375 C 20.050781 -23.144531 18.132812 -24.046875 15.6875 -24.046875 C 13.195312 -24.046875 11.257812 -23.144531 9.875 -21.34375 C 8.488281 -19.539062 7.796875 -17.023438 7.796875 -13.796875 C 7.796875 -10.566406 8.492188 -8.050781 9.890625 -6.25 Z M 9.890625 -6.25 "/></g></g></g><g fill="#ffffff" fill-opacity="1"><g transform="translate(218.562744, 263.337536)"><g><path d="M 25.15625 -23.28125 L 15.796875 -23.28125 L 15.796875 0 L 10.28125 0 L 10.28125 -23.28125 L 0.921875 -23.28125 L 0.921875 -27.59375 L 25.15625 -27.59375 Z M 25.15625 -23.28125 "/></g></g></g><g fill="#ffffff" fill-opacity="1"><g transform="translate(246.965571, 263.337536)"><g><path d="M 23.484375 -4.359375 L 23.484375 0 L 3.5625 0 L 3.5625 -27.59375 L 23.078125 -27.59375 L 23.078125 -23.28125 L 9.078125 -23.28125 L 9.078125 -16 L 22.078125 -16 L 22.078125 -11.640625 L 9.078125 -11.640625 L 9.078125 -4.359375 Z M 23.484375 -4.359375 "/></g></g></g><g fill="#ffffff" fill-opacity="1"><g transform="translate(275.088382, 263.337536)"><g><path d="M 15.40625 -28.15625 C 19 -28.15625 21.804688 -27.28125 23.828125 -25.53125 C 25.859375 -23.789062 27.019531 -21.492188 27.3125 -18.640625 L 27.359375 -18.234375 L 21.84375 -18.234375 L 21.765625 -18.640625 C 21.046875 -22.242188 18.894531 -24.046875 15.3125 -24.046875 C 13.070312 -24.046875 11.269531 -23.144531 9.90625 -21.34375 C 8.550781 -19.539062 7.875 -17.078125 7.875 -13.953125 C 7.875 -10.617188 8.550781 -8.050781 9.90625 -6.25 C 11.269531 -4.457031 13.046875 -3.5625 15.234375 -3.5625 C 16.992188 -3.5625 18.40625 -4.050781 19.46875 -5.03125 C 20.539062 -6.019531 21.265625 -7.394531 21.640625 -9.15625 L 21.71875 -9.5625 L 27.203125 -9.5625 L 27.15625 -9.15625 C 26.863281 -6.175781 25.632812 -3.8125 23.46875 -2.0625 C 21.3125 -0.3125 18.488281 0.5625 15 0.5625 C 11.101562 0.5625 7.96875 -0.71875 5.59375 -3.28125 C 3.226562 -5.84375 2.046875 -9.296875 2.046875 -13.640625 C 2.046875 -18.066406 3.296875 -21.59375 5.796875 -24.21875 C 8.304688 -26.84375 11.507812 -28.15625 15.40625 -28.15625 Z M 15.40625 -28.15625 "/></g></g></g><g fill="#ffffff" fill-opacity="1"><g transform="translate(307.291517, 263.337536)"><g><path d="M 27.484375 -27.59375 L 27.484375 0 L 22 0 L 22 -11.3125 L 9.078125 -11.3125 L 9.078125 0 L 3.5625 0 L 3.5625 -27.59375 L 9.078125 -27.59375 L 9.078125 -15.71875 L 22 -15.71875 L 22 -27.59375 Z M 27.484375 -27.59375 "/></g></g></g><g fill="#ffffff" fill-opacity="1"><g transform="translate(93.166104, 295.678084)"><g><path d="M 13.738281 -13.917969 L 13.738281 -15.492188 L 0.761719 -15.492188 L 0.761719 -13.917969 L 6.285156 -13.917969 L 6.285156 0 L 8.21875 0 L 8.21875 -13.917969 Z M 13.738281 -13.917969 "/></g></g></g><g fill="#ffffff" fill-opacity="1"><g transform="translate(108.85418, 295.678084)"><g><path d="M 12.550781 -1.570312 L 4.175781 -1.570312 L 4.175781 -6.960938 L 11.652344 -6.960938 L 11.652344 -8.53125 L 4.175781 -8.53125 L 4.175781 -13.917969 L 12.324219 -13.917969 L 12.324219 -15.492188 L 2.246094 -15.492188 L 2.246094 0 L 12.550781 0 Z M 12.550781 -1.570312 "/></g></g></g><g fill="#ffffff" fill-opacity="1"><g transform="translate(123.981206, 295.678084)"><g><path d="M 8.375 -15.804688 C 3.972656 -15.804688 1.054688 -12.394531 1.054688 -7.679688 C 1.054688 -3.144531 3.570312 0.3125 8.082031 0.3125 C 12.167969 0.3125 14.257812 -2.132812 14.546875 -4.9375 L 14.570312 -5.164062 L 12.640625 -5.164062 L 12.59375 -4.9375 C 12.144531 -2.714844 10.777344 -1.210938 8.195312 -1.210938 C 5.140625 -1.210938 3.210938 -3.953125 3.210938 -7.769531 C 3.210938 -11.515625 5.164062 -14.277344 8.328125 -14.277344 C 10.910156 -14.277344 12.28125 -12.773438 12.730469 -10.550781 L 12.773438 -10.328125 L 14.707031 -10.328125 L 14.683594 -10.550781 C 14.367188 -13.582031 12.304688 -15.804688 8.375 -15.804688 Z M 8.375 -15.804688 "/></g></g></g><g fill="#ffffff" fill-opacity="1"><g transform="translate(141.621708, 295.678084)"><g><path d="M 14.636719 -15.492188 L 12.707031 -15.492188 L 12.707031 -8.398438 L 4.175781 -8.398438 L 4.175781 -15.492188 L 2.246094 -15.492188 L 2.246094 0 L 4.175781 0 L 4.175781 -6.78125 L 12.707031 -6.78125 L 12.707031 0 L 14.636719 0 Z M 14.636719 -15.492188 "/></g></g></g><g fill="#ffffff" fill-opacity="1"><g transform="translate(159.957894, 295.678084)"><g><path d="M 14.367188 0 L 14.324219 -15.492188 L 12.4375 -15.492188 L 12.4375 -7.746094 C 12.4375 -5.925781 12.460938 -3.703125 12.503906 -1.886719 L 5.207031 -15.492188 L 2.246094 -15.492188 L 2.246094 0 L 4.175781 0 L 4.175781 -7.746094 C 4.175781 -9.5625 4.152344 -11.785156 4.109375 -13.605469 L 11.40625 0 Z M 14.367188 0 "/></g></g></g><g fill="#ffffff" fill-opacity="1"><g transform="translate(178.024785, 295.678084)"><g><path d="M 8.375 -15.804688 C 3.660156 -15.804688 1.054688 -12.484375 1.054688 -7.746094 C 1.054688 -3.03125 3.660156 0.3125 8.375 0.3125 C 13.089844 0.3125 15.695312 -3.03125 15.695312 -7.746094 C 15.695312 -12.484375 13.089844 -15.804688 8.375 -15.804688 Z M 8.375 -1.210938 C 5.117188 -1.210938 3.210938 -3.726562 3.210938 -7.746094 C 3.210938 -11.785156 5.117188 -14.277344 8.375 -14.277344 C 11.628906 -14.277344 13.539062 -11.785156 13.539062 -7.746094 C 13.539062 -3.726562 11.628906 -1.210938 8.375 -1.210938 Z M 8.375 -1.210938 "/></g></g></g><g fill="#ffffff" fill-opacity="1"><g transform="translate(196.518071, 295.678084)"><g><path d="M 12.550781 -1.570312 L 4.175781 -1.570312 L 4.175781 -15.492188 L 2.246094 -15.492188 L 2.246094 0 L 12.550781 0 Z M 12.550781 -1.570312 "/></g></g></g><g fill="#ffffff" fill-opacity="1"><g transform="translate(211.375805, 295.678084)"><g><path d="M 8.375 -15.804688 C 3.660156 -15.804688 1.054688 -12.484375 1.054688 -7.746094 C 1.054688 -3.03125 3.660156 0.3125 8.375 0.3125 C 13.089844 0.3125 15.695312 -3.03125 15.695312 -7.746094 C 15.695312 -12.484375 13.089844 -15.804688 8.375 -15.804688 Z M 8.375 -1.210938 C 5.117188 -1.210938 3.210938 -3.726562 3.210938 -7.746094 C 3.210938 -11.785156 5.117188 -14.277344 8.375 -14.277344 C 11.628906 -14.277344 13.539062 -11.785156 13.539062 -7.746094 C 13.539062 -3.726562 11.628906 -1.210938 8.375 -1.210938 Z M 8.375 -1.210938 "/></g></g></g><g fill="#ffffff" fill-opacity="1"><g transform="translate(229.869092, 295.678084)"><g><path d="M 8.957031 -7.476562 L 8.957031 -5.90625 L 12.574219 -5.90625 C 12.574219 -3.144531 10.710938 -1.210938 8.195312 -1.210938 C 5.140625 -1.210938 3.210938 -3.953125 3.210938 -7.769531 C 3.210938 -11.515625 5.164062 -14.277344 8.328125 -14.277344 C 10.910156 -14.277344 12.28125 -12.773438 12.730469 -10.550781 L 12.773438 -10.328125 L 14.707031 -10.328125 L 14.683594 -10.550781 C 14.367188 -13.582031 12.304688 -15.804688 8.375 -15.804688 C 3.972656 -15.804688 1.054688 -12.394531 1.054688 -7.679688 C 1.054688 -3.144531 3.570312 0.3125 8.082031 0.3125 C 9.855469 0.3125 11.226562 -0.269531 12.101562 -1.257812 L 12.796875 -2.695312 L 12.796875 0 L 14.503906 0 L 14.503906 -7.476562 Z M 8.957031 -7.476562 "/></g></g></g><g fill="#ffffff" fill-opacity="1"><g transform="translate(247.756456, 295.678084)"><g><path d="M 7.835938 -6.105469 L 13.3125 -15.492188 L 11.136719 -15.492188 L 6.960938 -7.96875 L 2.648438 -15.492188 L 0.425781 -15.492188 L 5.90625 -6.105469 L 5.90625 0 L 7.835938 0 Z M 7.835938 -6.105469 "/></g></g></g></svg>